<svg height="464pt" viewBox="0 0 464 464.32141" width="464pt" xmlns="http://www.w3.org/2000/svg"><path d="m224.160156 432.320312v-272h-112c-61.855468 0-112 50.144532-112 112v96c0 53.019532 42.980469 96 96 96h144c3.421875.015626 6.839844-.171874 10.242188-.558593-15.1875-2.78125-26.222656-16.003907-26.242188-31.441407zm0 0" fill="#ffb655"/><path d="m224.160156 144.320312h240v256h-240zm0 0" fill="#78b9eb"/><path d="m432.160156 80.320312h-176c-17.671875 0-32 14.328126-32 32v32h240v-32c0-17.671874-14.328125-32-32-32zm0 0" fill="#acabb1"/><path d="m224.160156 432.320312c.019532 15.4375 11.054688 28.660157 26.242188 31.441407 1.894531.390625 3.824218.578125 5.757812.558593h176c17.671875 0 32-14.328124 32-32v-32h-240zm0 0" fill="#acabb1"/><path d="m464.160156 144.320312v256h-240v-3.519531c93.699219-61.839843 167.429688-149.546875 212.242188-252.480469zm0 0" fill="#5aaae7"/><path d="m220.160156 16.640625c-26.078125 0-26.078125-16.640625-52.078125-16.640625s-26 16.640625-52 16.640625-25.921875-16.640625-51.921875-16.640625v96.320312c0 17.671876 14.328125 32 32 32h128v-16c0-17.671874 14.328125-32 32-32h16v-80.320312c-26 0-26 16.640625-52 16.640625zm0 0" fill="#ffb655"/><path d="m168.160156 224.320312c-38.777344.019532-72.96875 25.417969-84.1875 62.535157-11.222656 37.117187 3.175782 77.207031 35.449219 98.703125 32.269531 21.496094 74.808594 19.335937 104.738281-5.320313v-135.839843c-15.753906-13.019532-35.5625-20.121094-56-20.078126zm0 0" fill="#ffd422"/><path d="m224.160156 144.320312v-16h-120v32h120zm0 0" fill="#ffa733"/><path d="m104.160156 128.320312h120v16h-120zm0 0" fill="#ff9811"/><path d="m264.160156 104.320312h32v16h-32zm0 0" fill="#898890"/><path d="m312.160156 104.320312h64v16h-64zm0 0" fill="#898890"/><path d="m312.160156 424.320312h64v16h-64zm0 0" fill="#898890"/><g fill="#ff9811"><path d="m112.164062 64.316406c4.382813-.546875 8.382813 2.5625 8.929688 6.945313l6.015625 48.125c.546875 4.382812-2.5625 8.378906-6.945313 8.929687-4.382812.546875-8.382812-2.5625-8.929687-6.945312l-6.015625-48.121094c-.550781-4.386719 2.5625-8.382812 6.945312-8.933594zm0 0"/><path d="m209.214844 119.390625 6.015625-48.125c.550781-4.382813 4.546875-7.492187 8.933593-6.945313 4.382813.550782 7.492188 4.546876 6.945313 8.929688l-6.015625 48.125c-.546875 4.382812-4.546875 7.492188-8.929688 6.945312-4.386718-.550781-7.496093-4.546874-6.949218-8.929687zm0 0"/><path d="m168.160156 64.320312c4.417969 0 8 3.582032 8 8v48c0 4.417969-3.582031 8-8 8-4.417968 0-8-3.582031-8-8v-48c0-4.417968 3.582032-8 8-8zm0 0"/></g><path d="m176.160156 304.320312h-16c-4.417968 0-8-3.582031-8-8 0-4.417968 3.582032-8 8-8h16c4.417969 0 8 3.582032 8 8h16c0-13.253906-10.746094-24-24-24v-8h-16v8c-13.253906 0-24 10.746094-24 24 0 13.253907 10.746094 24 24 24h16c4.417969 0 8 3.582032 8 8 0 4.417969-3.582031 8-8 8h-16c-4.417968 0-8-3.582031-8-8h-16c0 13.253907 10.746094 24 24 24v8h16v-8c13.253906 0 24-10.746093 24-24 0-13.253906-10.746094-24-24-24zm0 0" fill="#ff5023"/></svg>